#!OML:ASF H:\ManfredETheater\Project 1\Capture day 1\Session 1\subject.ASF
:FULLY-SPECIFIED
:DEGREES
151
root -0.0286734 16.3572 -20.625 -193.988 13.1623 -182.231
lowerback 14.7228 -2.48172 -1.16671
upperback 0.553403 -2.88576 4.17801
thorax -7.39506 -1.17186 5.72711
lowerneck -16.6149 2.65202 1.50267
upperneck 16.8294 4.66096 -5.76099
head 8.13753 1.8283 -1.60088
rclavicle -3.39922e-014 -1.59028e-014
rhumerus -70.9348 -36.4818 -38.3259
rradius 23.8945
rwrist 12.5211
rhand -22.9228 -13.0906
rfingers 7.12502
rthumb 3.51765 -43.0414
lclavicle -3.39922e-014 -1.59028e-014
lhumerus -43.255 14.7621 51.4122
lradius 67.0252
lwrist 4.93589
lhand -26.5387 14.4905
lfingers 7.12502
lthumb 0.0254425 44.4703
rfemur -17.6157 -8.60003 11.9241
rtibia 82.482
rfoot -11.811 -9.70487
rtoes -33.7078
lfemur -29.6797 0.844307 -17.7933
ltibia 51.9585
lfoot -6.0516 -14.0366
ltoes 1.58351
152
root -0.0237101 16.4338 -20.7302 -193.483 13.1194 -182.278
lowerback 14.5858 -2.42088 -1.23265
upperback 0.51342 -2.83079 4.12775
thorax -7.36647 -1.14846 5.69289
lowerneck -16.7107 2.64465 1.53646
upperneck 16.6741 4.63437 -5.80954
head 8.1036 1.81091 -1.6251
rclavicle 3.72721e-014 -1.90833e-014
rhumerus -71.3422 -36.0644 -38.1008
rradius 24.1655
rwrist 11.7271
rhand -22.8735 -13.6317
rfingers 7.12502
rthumb 3.56525 -43.5817
lclavicle 3.72721e-014 -1.90833e-014
lhumerus -43.7455 15.0088 51.5883
lradius 66.1367
lwrist 4.3226
lhand -26.0509 13.9457
lfingers 7.12502
lthumb 0.49661 43.9248
rfemur -18.0139 -8.84115 12.1429
rtibia 81.4717
rfoot -12.447 -10.219
rtoes -34.2977
lfemur -29.4423 0.660974 -17.9539
ltibia 51.3493
lfoot -6.17837 -13.8219
ltoes 1.65101
153
root -0.0195034 16.5097 -20.8318 -192.983 13.1189 -182.313
lowerback 14.4519 -2.36792 -1.27337
upperback 0.48196 -2.78054 4.07984
thorax -7.33105 -1.12794 5.64767
lowerneck -16.8073 2.65561 1.61599
upperneck 16.5252 4.63121 -5.9
head 8.0751 1.80363 -1.66791
rclavicle -9.26337e-014 3.81667e-014
rhumerus -71.5857 -35.6446 -38.0135
rradius 24.493
rwrist 10.821
rhand -22.8537 -14.1887
rfingers 7.12502
rthumb 3.58439 -44.1383
lclavicle -9.26337e-014 3.81667e-014
lhumerus -44.3042 15.2248 51.7957
lradius 65.296
lwrist 3.67332
lhand -25.578 13.4448
lfingers 7.12502
lthumb 0.953369 43.4224
rfemur -18.3949 -9.0574 12.3867
rtibia 80.3501
rfoot -13.0407 -10.807
rtoes -34.7721
lfemur -29.1973 0.443309 -18.0885
ltibia 50.7218
lfoot -6.29286 -13.5336
ltoes 1.64631
154
root -0.0161072 16.5846 -20.9302 -192.494 13.1537 -182.351
lowerback 14.3207 -2.32362 -1.30157
upperback 0.462701 -2.73917 4.02854
thorax -7.28374 -1.11232 5.59309
lowerneck -16.9072 2.68741 1.72745
upperneck 16.3838 4.65258 -6.00764
head 8.05187 1.80822 -1.71864
rclavicle 4.17448e-015 1.43125e-014
rhumerus -71.6731 -35.2368 -38.0415
rradius 24.8524
rwrist 9.88333
rhand -22.8491 -14.7214
rfingers 7.12502
rthumb 3.58883 -44.671
lclavicle 4.17448e-015 1.43125e-014
lhumerus -44.9175 15.4239 52.0273
lradius 64.4991
lwrist 2.97917
lhand -25.0832 13.0308
lfingers 7.12502
lthumb 1.4312 43.0058
rfemur -18.7481 -9.2484 12.6304
rtibia 79.1199
rfoot -13.6163 -11.4369
rtoes -35.2325
lfemur -28.9415 0.19323 -18.2129
ltibia 50.0783
lfoot -6.39523 -13.1779
ltoes 1.5738
155
root -0.0134257 16.6584 -21.0258 -192.019 13.2242 -182.387
lowerback 14.1897 -2.28508 -1.31402
upperback 0.451214 -2.70221 3.97632
thorax -7.22843 -1.09938 5.52918
lowerneck -16.984 2.73413 1.84573
upperneck 16.2429 4.69264 -6.11319
head 8.02572 1.82297 -1.76765
rclavicle -4.2043e-014 -2.22639e-014
rhumerus -71.6379 -34.8509 -38.1288
rradius 25.2241
rwrist 8.9802
rhand -22.8505 -15.2125
rfingers 7.12502
rthumb 3.58752 -45.1621
lclavicle -4.2043e-014 -2.22639e-014
lhumerus -45.5843 15.6012 52.2891
lradius 63.7479
lwrist 2.23701
lhand -24.5408 12.7095
lfingers 7.12502
lthumb 1.95509 42.6803
rfemur -19.0665 -9.4106 12.8712
rtibia 77.7841
rfoot -14.1643 -12.0649
rtoes -35.6469
lfemur -28.6743 -0.0794724 -18.3241
ltibia 49.4238
lfoot -6.48698 -12.7676
ltoes 1.42867
156
root -0.0112615 16.7305 -21.1188 -191.56 13.3307 -182.427
lowerback 14.0602 -2.25136 -1.32138
upperback 0.449805 -2.67035 3.9224
thorax -7.16287 -1.08922 5.46132
lowerneck -17.0493 2.79562 1.97294
upperneck 16.1078 4.75085 -6.21692
head 8.00054 1.84732 -1.81537
rclavicle -4.6615e-014 1.11319e-014
rhumerus -71.4788 -34.489 -38.2731
rradius 25.5974
rwrist 8.13821
rhand -22.8448 -15.6393
rfingers 7.12502
rthumb 3.59293 -45.5887
lclavicle -4.6615e-014 1.11319e-014
lhumerus -46.2873 15.7735 52.5793
lradius 63.0277
lwrist 1.47825
lhand -23.9612 12.4608
lfingers 7.12502
lthumb 2.51487 42.4257
rfemur -19.3469 -9.53631 13.101
rtibia 76.3477
rfoot -14.6808 -12.6533
rtoes -35.9869
lfemur -28.3949 -0.363055 -18.4271
ltibia 48.7615
lfoot -6.5695 -12.3132
ltoes 1.22207
157
root -0.00949263 16.8007 -21.2094 -191.116 13.4754 -182.469
lowerback 13.9326 -2.22078 -1.32349
upperback 0.45674 -2.64121 3.86849
thorax -7.0893 -1.08057 5.39091
lowerneck -17.098 2.87076 2.09271
upperneck 15.9781 4.82631 -6.30187
head 7.97447 1.88156 -1.85361
rclavicle 5.25785e-014 1.59028e-014
rhumerus -71.2016 -34.1441 -38.4782
rradius 25.9751
rwrist 7.3633
rhand -22.8271 -16.0062
rfingers 7.12502
rthumb 3.61009 -45.9553
lclavicle 5.25785e-014 1.59028e-014
lhumerus -47.0165 15.9459 52.8985
lradius 62.3327
lwrist 0.737552
lhand -23.3552 12.2314
lfingers 7.12502
lthumb 3.10009 42.1886
rfemur -19.5899 -9.6185 13.3214
rtibia 74.8173
rfoot -15.162 -13.1685
rtoes -36.2672
lfemur -28.1075 -0.642483 -18.5185
ltibia 48.0978
lfoot -6.65104 -11.8264
ltoes 0.965758
